<svg xmlns="http://www.w3.org/2000/svg" width="16" height="16" viewBox="0 0 16 16">
  <rect width="16" height="16" rx="2" fill="#1c2430"/>
  <rect x="3" y="3" width="10" height="10" rx="1.5" fill="#dbeafe" stroke="#38bdf8" stroke-width="1"/>
  <rect x="5" y="5" width="6" height="6" rx=".8" fill="#0f172a"/>
  <path d="M1.8 5h1.4M1.8 8h1.4M1.8 11h1.4M12.8 5h1.4M12.8 8h1.4M12.8 11h1.4M5 1.8v1.4M8 1.8v1.4M11 1.8v1.4M5 12.8v1.4M8 12.8v1.4M11 12.8v1.4" stroke="#38bdf8" stroke-width="1" stroke-linecap="round"/>
  <path d="M5.7 9.8V6.2h1.1l1.3 2.1V6.2h1v3.6H8L6.7 7.7v2.1z" fill="#67e8f9"/>
  <path d="M10.1 9.8V6.2h1v2.7h1.4v.9z" fill="#67e8f9"/>
</svg>
